<svg id="logo" xmlns="http://www.w3.org/2000/svg" width="103.784" height="116.66" viewBox="0 0 103.784 116.66">
  <g id="Group_187" data-name="Group 187">
    <path id="_265970920" d="M70.218,11.7A4.582,4.582,0,0,1,67.251,7.31c-.084-3.5-.054-6.264-.054-6.264S69.269.8,70.837,3.729s.306,7.875.306,7.875c-1.807-1.872-1.818-3.86-1.784-6.173,0,0-.87,1.938.859,6.27Z" transform="translate(-58.487 -0.667)" fill="#aae5ce" fill-rule="evenodd" opacity="0.18"/>
    <path id="_265971112" d="M55.052,34.6a5.14,5.14,0,0,0-5.088-3.076c-3.925.1-7.022.294-7.022.294s-.152,2.335,3.213,3.926,8.84-.1,8.84-.1c-2.2-1.919-4.427-1.818-7.017-1.649,0,0,2.122-1.085,7.073.608Z" transform="translate(-42.942 -20.209)" fill="#aae5ce" fill-rule="evenodd" opacity="0.18"/>
    <path id="_265971064" d="M87.326,16.515a6.279,6.279,0,0,1-4.408-5.772c-.392-4.781-.571-8.566-.571-8.566s2.816-.493,5.193,3.383,1.043,10.749,1.043,10.749c-2.621-2.418-2.793-5.136-2.929-8.3,0,0-1.037,2.72,1.673,8.509Z" transform="translate(-68.202 -1.383)" fill="#aae5ce" fill-rule="evenodd" opacity="0.3"/>
    <path id="_266002312" d="M65.473,51.877a7.573,7.573,0,0,0-7.361-4.747c-5.785-.014-10.353.133-10.353.133s-.323,3.433,4.563,5.919,13.023.225,13.023.225c-3.158-2.92-6.442-2.866-10.262-2.728,0,0,3.171-1.507,10.39,1.2Z" transform="translate(-46.027 -30.211)" fill="#aae5ce" fill-rule="evenodd" opacity="0.3"/>
    <path id="_265970824" d="M75.816,75.663A10.661,10.661,0,0,0,65.453,68.98c-8.145-.02-14.575.187-14.575.187S50.422,74,57.3,77.5s18.334.317,18.334.317c-4.446-4.111-9.069-4.035-14.448-3.84,0,0,4.465-2.122,14.628,1.685h0Z" transform="translate(-48.025 -44.218)" fill="#aae5ce" fill-rule="evenodd" opacity="0.55"/>
    <path id="_265987048" d="M89.276,111.807s-3.148-9.143-14.363-9.056-20.067.463-20.067.463-.559,6.661,8.963,11.384,25.25.179,25.25.179c-6.18-5.6-12.544-5.429-19.948-5.085,0,0,6.118-2.984,20.165,2.115Z" transform="translate(-50.569 -65.866)" fill="#aae5ce" fill-rule="evenodd" opacity="0.7"/>
    <path id="_265986448" d="M108.82,22.71s-6.91-2.959-6.964-9.883a93.889,93.889,0,0,1,.58-11.733s6.911,2.114,7.7,8.245a56.618,56.618,0,0,1-.106,12.789,32.229,32.229,0,0,1-4.22-13.688S104.336,14.677,108.82,22.71Z" transform="translate(-80.706 -0.702)" fill="#aae5ce" fill-rule="evenodd" opacity="0.55"/>
    <path id="_265987000" d="M138.882,40.133s-9.324-3.993-9.4-13.334a126.666,126.666,0,0,1,.783-15.83s9.325,2.853,10.392,11.124a76.4,76.4,0,0,1-.143,17.256,43.479,43.479,0,0,1-5.694-18.468s-1.993,8.414,4.057,19.253h0Z" transform="translate(-98.417 -7.031)" fill="#aae5ce" fill-rule="evenodd" opacity="0.7"/>
    <path id="_265990000" d="M211.282,39.9a77.563,77.563,0,0,0-.4-9.416c-.808-7.683,2.722-17.361,10.742-19.5a91.353,91.353,0,0,0,.94,9.954c.671,4.708,0,11.569-2.954,14.8a19.077,19.077,0,0,1-6.446,4.574s4.969-6.726,4.3-11.838-.672-6.591-.4-7.8l.269-1.211s-1.612,1.883-1.612,6.86.135,7-4.431,13.586h0Z" transform="translate(-150.523 -7.035)" fill="#aae5ce" fill-rule="evenodd" opacity="0.7"/>
    <path id="_265994512" d="M248.635,21.795a54.483,54.483,0,0,0-.283-6.612c-.567-5.395,1.911-12.191,7.543-13.7a64.124,64.124,0,0,0,.66,6.99c.471,3.306,0,8.124-2.074,10.391a13.4,13.4,0,0,1-4.526,3.212s3.489-4.723,3.017-8.312-.472-4.628-.283-5.478l.189-.85s-1.131,1.322-1.131,4.817.094,4.912-3.111,9.54Z" transform="translate(-174.566 -0.953)" fill="#aae5ce" fill-rule="evenodd" opacity="0.55"/>
    <path id="_265987792" d="M274.452,15.208a39.572,39.572,0,0,0-.205-4.8c-.412-3.917,1.388-8.852,5.477-9.945a46.594,46.594,0,0,0,.479,5.075c.342,2.4,0,5.9-1.506,7.544a9.725,9.725,0,0,1-3.286,2.332s2.533-3.429,2.191-6.035-.342-3.361-.206-3.978l.137-.617s-.822.96-.822,3.5.069,3.567-2.259,6.927Z" transform="translate(-191.179 -0.296)" fill="#aae5ce" fill-rule="evenodd" opacity="0.3"/>
    <path id="_265983688" d="M277.432,53.77a46.783,46.783,0,0,1,5.676.3c4.628.533,10.485-1.536,11.826-6.359a55.049,55.049,0,0,1-6-.627c-2.835-.433-6.976-.07-8.94,1.692a11.5,11.5,0,0,0-2.8,3.859s4.086-2.955,7.164-2.519,3.97.445,4.7.29l.732-.155s-1.145.96-4.147.93-4.217-.124-8.219,2.59Z" transform="translate(-193.109 -30.076)" fill="#aae5ce" fill-rule="evenodd" opacity="0.3"/>
    <path id="_265983064" d="M253.316,78.374a65.492,65.492,0,0,1,7.947.42c6.48.747,14.681-2.151,16.559-8.9a77.085,77.085,0,0,1-8.4-.878c-3.97-.607-9.768-.1-12.518,2.369a16.108,16.108,0,0,0-3.916,5.4s5.721-4.138,10.031-3.528,5.559.623,6.584.406l1.025-.216s-1.6,1.345-5.806,1.3S258.92,74.575,253.316,78.374Z" transform="translate(-177.591 -44.089)" fill="#aae5ce" fill-rule="evenodd" opacity="0.55"/>
    <path id="_265983136" d="M224.516,112.552a90.664,90.664,0,0,1,10.987.82c8.946,1.229,20.386-2.535,23.188-11.826a106.771,106.771,0,0,1-11.6-1.468c-5.476-.959-13.517-.43-17.4,2.9a22.3,22.3,0,0,0-5.583,7.361s8.043-5.555,13.991-4.581,7.676,1.03,9.1.761l1.424-.269s-2.259,1.813-8.075,1.628-8.168-.417-16.039,4.672h0Z" transform="translate(-159.079 -63.879)" fill="#aae5ce" fill-rule="evenodd" opacity="0.7"/>
    <path id="_265983328" d="M295.97,11.393a29.6,29.6,0,0,0-.534-3.557c-.618-2.883.33-6.7,3.286-7.836a34.939,34.939,0,0,0,.76,3.739c.445,1.759.468,4.39-.522,5.735a7.277,7.277,0,0,1-2.261,2s1.613-2.753,1.151-4.666a9.087,9.087,0,0,1-.469-2.944l.053-.47a4.211,4.211,0,0,0-.334,2.668c.2,1.889.334,2.649-1.132,5.335Z" transform="translate(-204.684 0)" fill="#aae5ce" fill-rule="evenodd" opacity="0.18"/>
    <path id="_265983160" d="M297.941,35.68a33.1,33.1,0,0,1,4.02-.02c3.29.188,7.342-1.513,8.092-4.974a38.929,38.929,0,0,1-4.26-.2c-2.02-.19-4.929.235-6.245,1.56a8.136,8.136,0,0,0-1.818,2.839s2.765-2.254,4.956-2.072a10.156,10.156,0,0,0,3.332.013l.51-.139a4.71,4.71,0,0,1-2.89.826c-2.121.1-2.983.085-5.7,2.164Z" transform="translate(-206.27 -19.517)" fill="#aae5ce" fill-rule="evenodd" opacity="0.18"/>
  </g>
  <circle id="_265983568" cx="6.782" cy="6.782" r="6.782" transform="translate(44.982 30.399)" fill="#fff"/>
  <path id="_265983640" d="M97.346,52.873s24.066,22.842,26.513,42.217c.867,6.864-6.014,55.626,6.322,55.066,4.487-.2,8.362-7.342,6.73-24.474s-2.651-24.882,0-35.283S146.905,68.781,151.8,63.07s9.382-10.809,9.382-10.809-12.849,8.77-21.211,17.948-10.4,13.664-10.4,13.664-9.993-17.54-32.224-31h0Z" transform="translate(-77.816 -33.501)" fill="#fff" fill-rule="evenodd"/>
</svg>
